<svg xmlns="http://www.w3.org/2000/svg" viewBox="0 0 100 100" width="200px" height="200px"><circle cx="78" cy="14" r="1" fill="#f1bc19"/><circle cx="50" cy="50" r="38" fill="#f9dbd2"/><circle cx="84" cy="16" r="4" fill="#f1bc19"/><circle cx="14" cy="26" r="2" fill="#ee3e54"/><circle cx="78" cy="77" r="2" fill="#fbcd59"/><circle cx="17" cy="78" r="4" fill="#fbcd59"/><circle cx="24" cy="83" r="2" fill="#ee3e54"/><circle cx="64.483" cy="78.517" r="2.483" fill="#fff"/><circle cx="16" cy="48" r="1" fill="#fff"/><circle cx="86" cy="31" r="1" fill="#f1bc19"/><circle cx="84" cy="45" r="2" fill="#fff"/><g><path fill="#8889b9" d="M66.441,55.517c-1.305-1.456-2.254-2.544-2.254-5.452V38.937c0.085-5.67-1.41-10.282-9.229-11.932 c-9.242-1.519-16.426,1.757-17.914,8.935c-0.145,0.698,0.351,1.373,1.064,1.463l5.704,0.714c0.63,0.079,1.204-0.332,1.358-0.942 c0.606-2.398,2.103-4.076,5.685-4.076c3.333,0.254,4.102,3.089,4.102,5.649v1.556c-5.706,0.143-18.95,0.682-19.142,11.709 c-0.214,12.228,12.391,10.197,13.801,9.816c0,0,2.845-0.5,6.492-4.161c0.778,1.541,1.885,2.864,3.14,4.092 c0.462,0.452,1.195,0.485,1.688,0.066l5.381-4.568C66.841,56.813,66.898,56.028,66.441,55.517z M54.349,51.917 c-1.474,4.982-8.872,6.177-9.133-0.286c-0.288-7.14,9.195-6.46,9.657-6.432C54.872,45.199,55.186,49.085,54.349,51.917z"/><path fill="#472b29" d="M46.079,62.891c-2.268,0-5.176-0.432-7.475-2.224c-2.383-1.858-3.558-4.774-3.489-8.668 c0.2-11.429,13.346-12.215,19.142-12.378v-0.874c0-4.688-2.601-4.885-3.455-4.951c-2.789,0.002-4.333,1.096-4.953,3.55 c-0.242,0.956-1.149,1.589-2.124,1.465l-5.705-0.714c-0.538-0.067-1.028-0.359-1.343-0.8c-0.311-0.434-0.427-0.981-0.32-1.499 c1.531-7.378,8.875-11.101,18.713-9.484c8.793,1.855,9.894,7.427,9.815,12.633l0,11.118c0,2.668,0.825,3.59,2.075,4.984l0,0 c0.348,0.387,0.52,0.886,0.484,1.405c-0.036,0.522-0.276,0.996-0.676,1.336l-5.381,4.568c-0.771,0.655-1.902,0.613-2.63-0.1 c-1.217-1.19-2.13-2.306-2.821-3.454c-3.44,3.195-6.083,3.691-6.201,3.712C49.735,62.519,48.183,62.891,46.079,62.891z M50.855,32.398c3.116,0.235,4.802,2.489,4.802,6.349v2.239l-0.683,0.017c-7.845,0.197-18.294,1.554-18.46,11.021 c-0.06,3.43,0.933,5.966,2.951,7.539c3.839,2.993,9.909,1.605,9.968,1.589c0.084-0.018,2.765-0.552,6.179-3.979l0.685-0.687 l0.437,0.866c0.658,1.304,1.612,2.545,3.004,3.906c0.205,0.2,0.531,0.215,0.745,0.033l5.381-4.568 c0.11-0.093,0.175-0.222,0.185-0.364c0.009-0.139-0.037-0.272-0.129-0.376l0,0c-1.305-1.457-2.433-2.715-2.433-5.919V38.938 c0.085-5.638-1.357-9.703-8.673-11.247c-9-1.478-15.72,1.813-17.084,8.392c-0.039,0.188,0.038,0.332,0.087,0.401 c0.09,0.126,0.225,0.206,0.378,0.225l5.705,0.714c0.265,0.034,0.523-0.142,0.593-0.419C45.274,33.905,47.356,32.398,50.855,32.398z M49.071,56.771c-0.2,0-0.396-0.012-0.589-0.036c-2.367-0.294-3.849-2.192-3.965-5.076c-0.079-1.956,0.507-3.56,1.742-4.768 c2.62-2.561,7.276-2.479,8.639-2.392l0.605,0.038l0.067,0.605c0.013,0.164,0.315,4.049-0.55,6.972l-0.671-0.198l0.671,0.198 C54.125,55.137,51.41,56.771,49.071,56.771z M53.922,45.872c-1.662,0-4.872,0.249-6.685,2.021c-0.953,0.932-1.386,2.145-1.323,3.71 c0.088,2.174,1.086,3.538,2.739,3.744c1.834,0.229,4.274-1.094,5.023-3.628v0c0.598-2.021,0.577-4.662,0.531-5.844 C54.119,45.873,54.023,45.872,53.922,45.872z"/></g><g><path fill="#f1bc19" d="M23.354,62.201c-0.979-0.624-1.313,0.357-0.75,0.87C22.604,63.071,33.687,74,48,74 c13.468,0,20.683-3.911,24.976-7.16c0.439-0.332,0.499-0.999,0.134-1.421c-0.005-0.005-0.009-0.011-0.014-0.016 c-0.263-0.303-0.673-0.382-1.02-0.2c-2.249,1.184-11.235,5.396-23.826,4.515C32,68.58,23.354,62.201,23.354,62.201z"/><path fill="#472b29" d="M48,74.5c-14.352,0-25.635-10.962-25.747-11.073c-0.462-0.421-0.564-1.115-0.219-1.566 c0.26-0.339,0.831-0.564,1.589-0.081c0.009,0.006,0.019,0.012,0.027,0.019c0.086,0.063,8.739,6.308,24.634,7.42 c12.362,0.864,21.156-3.194,23.558-4.458c0.557-0.294,1.212-0.167,1.63,0.314c0.282,0.326,0.411,0.74,0.367,1.154 c-0.042,0.404-0.248,0.772-0.563,1.01C66.821,72.125,58.553,74.5,48,74.5z M22.798,62.5c0.03,0.015,0.046,0.113,0.143,0.201 C23.064,62.823,34.066,73.5,48,73.5c10.327,0,18.398-2.309,24.674-7.058c0.097-0.073,0.158-0.186,0.172-0.318 c0.015-0.139-0.027-0.277-0.114-0.377c-0.125-0.143-0.28-0.175-0.423-0.101c-2.46,1.296-11.463,5.457-24.094,4.571 c-16.026-1.122-24.606-7.21-25.143-7.602C22.921,62.521,22.833,62.503,22.798,62.5z"/></g><g><path fill="#f1bc19" d="M68.655,63.745c0,0,6.69-1.146,7.404,0.135s-0.52,4.921-1.624,7.28 c-0.39,0.809,0.216,1.034,0.649,0.674c0,0,3.906-3.056,3.915-9.589c0.001-0.472-0.338-0.869-0.786-0.951 c-2.664-0.485-6.716-0.569-9.84,1.328C67.504,63.164,67.79,63.88,68.655,63.745z"/><path fill="#472b29" d="M74.672,72.501c-0.196,0-0.384-0.059-0.539-0.179c-0.138-0.108-0.558-0.527-0.148-1.378 c1.415-3.022,2.119-5.956,1.638-6.819c-0.284-0.508-3.565-0.454-6.883,0.115c-0.002,0-0.005,0.001-0.007,0.001 c-0.638,0.097-1.157-0.14-1.331-0.608c-0.145-0.39-0.035-0.971,0.708-1.434c3.718-2.258,8.367-1.728,10.194-1.395 c0.694,0.126,1.197,0.733,1.196,1.443c-0.008,6.699-3.939,9.852-4.106,9.982C75.177,72.408,74.919,72.501,74.672,72.501z M73.413,62.766c1.458,0,2.716,0.211,3.083,0.871c1.039,1.862-1.22,6.899-1.584,7.686c0.689-0.628,3.581-3.591,3.588-9.078 c0-0.222-0.161-0.419-0.375-0.458c-1.715-0.313-6.07-0.814-9.492,1.263c-0.129,0.081-0.206,0.156-0.246,0.209 c0.042,0.005,0.105,0.006,0.188-0.007C69.719,63.056,71.703,62.766,73.413,62.766z M68.655,63.745h0.01H68.655z"/></g><g><path fill="#472b29" d="M63.688,56.438c-0.062,0-0.124-0.023-0.172-0.068c-1.418-1.34-2.266-3.51-2.266-5.807v-1.375 c0-0.138,0.112-0.25,0.25-0.25s0.25,0.112,0.25,0.25v1.375c0,2.545,1.089,4.48,2.109,5.443c0.1,0.095,0.104,0.253,0.01,0.353 C63.82,56.411,63.754,56.438,63.688,56.438z"/></g><g><path fill="#472b29" d="M61.5,46.75c-0.138,0-0.25-0.112-0.25-0.25v-8.313c0-0.138,0.112-0.25,0.25-0.25 s0.25,0.112,0.25,0.25V46.5C61.75,46.638,61.638,46.75,61.5,46.75z"/></g><g><path fill="#472b29" d="M61.331,36.06c-0.121,0-0.227-0.087-0.247-0.21c-0.462-2.876-1.934-4.574-4.921-5.677 c-0.13-0.048-0.196-0.192-0.148-0.321c0.048-0.129,0.194-0.195,0.321-0.148c3.137,1.158,4.753,3.03,5.242,6.067 c0.021,0.136-0.071,0.265-0.208,0.287C61.358,36.059,61.344,36.06,61.331,36.06z"/></g><g><path fill="#472b29" d="M44.125,56.75c-0.074,0-0.148-0.033-0.197-0.097c-1.695-2.185-2.188-5.139-1.316-7.904 c0.041-0.132,0.184-0.204,0.313-0.163c0.132,0.042,0.205,0.182,0.163,0.314c-0.822,2.608-0.36,5.392,1.234,7.447 c0.085,0.109,0.065,0.266-0.044,0.351C44.233,56.733,44.179,56.75,44.125,56.75z"/></g><g><path fill="#472b29" d="M43.943,46.835c-0.05,0-0.1-0.015-0.144-0.045c-0.113-0.079-0.141-0.235-0.061-0.348 c0.208-0.296,0.436-0.576,0.678-0.831c0.591-0.622,1.259-1.094,1.985-1.404c0.128-0.054,0.274,0.005,0.328,0.132 c0.054,0.127-0.005,0.274-0.132,0.328c-0.664,0.283-1.275,0.716-1.819,1.288c-0.225,0.237-0.437,0.497-0.631,0.773 C44.1,46.798,44.022,46.835,43.943,46.835z"/></g></svg>