<svg xmlns="http://www.w3.org/2000/svg" viewBox="0 0 64 64" width="200px" height="200px"><path fill="#9fddff" d="M31 3A28 28 0 1 0 31 59A28 28 0 1 0 31 3Z"/><path fill="#85cbf8" d="M31 8A23 23 0 1 0 31 54A23 23 0 1 0 31 8Z"/><path fill="#faefde" d="M27.312,38.234c-0.219,0-0.437-0.071-0.618-0.214l-5.359-4.213 c-1.288,1.977-3.506,3.199-5.946,3.199H10c-0.553,0-1-0.448-1-1V24.003c0-0.552,0.447-1,1-1h5.388c2.73,0,4.812,1.473,5.947,3.198 l5.358-4.212c0.182-0.143,0.399-0.214,0.618-0.214c0.217,0,0.435,0.07,0.615,0.211l2.337,1.822c0.21,0.165,0.346,0.405,0.377,0.667 c0.039-0.004,0.078-0.007,0.117-0.007c0.217,0,0.435,0.07,0.615,0.211l1.643,1.281v-1.958c0-0.552,0.447-1,1-1h4 c0.553,0,1,0.448,1,1V31h3.547c0.157,0,0.306,0.036,0.438,0.101v-7.097c0-0.552,0.447-1,1-1h4c0.553,0,1,0.448,1,1V31h3.03 c0.553,0,1,0.448,1,1v4.006c0,0.552-0.447,1-1,1H44c-0.282,0-0.537-0.117-0.719-0.305c-0.182,0.188-0.437,0.305-0.719,0.305h-8.547 c-0.553,0-1-0.448-1-1v-2.073l-5.078,4.08C27.755,38.161,27.533,38.234,27.312,38.234z M15.041,31.559 c0.716-0.022,1.525-0.324,1.525-1.573c0-1.218-0.81-1.513-1.525-1.534V31.559z"/><path fill="#8d6c9f" d="M51.42,10.407C45.949,4.982,38.704,2,31.005,2c-0.042,0-0.085,0-0.127,0 c-7.746,0.033-15.017,3.08-20.471,8.581S1.967,23.377,2,31.123s3.08,15.016,8.58,20.47C16.051,57.018,23.296,60,30.995,60 c0.042,0,0.085,0,0.127,0c7.746-0.033,15.017-3.08,20.471-8.581S60.033,38.623,60,30.877S56.92,15.861,51.42,10.407z M50.173,50.011C45.095,55.132,38.326,57.969,31.114,58c-7.206,0.023-14.004-2.749-19.125-7.827 C6.867,45.095,4.03,38.326,4,31.114s2.749-14.004,7.827-19.125S23.674,4.031,30.886,4c0.04,0,0.079,0,0.119,0 c7.167,0,13.913,2.777,19.006,7.827C55.133,16.905,57.97,23.674,58,30.886S55.251,44.89,50.173,50.011z"/><path fill="#8d6c9f" d="M31.089 51c-.001 0-.003 0-.005 0-.552.002-.997.452-.995 1.004l.009 2c.002.551.449.996 1 .996.001 0 .003 0 .004 0 .553-.002.998-.452.996-1.004l-.009-2C32.087 51.445 31.64 51 31.089 51zM37.098 51.051c-.146-.534-.698-.844-1.228-.702-.533.146-.848.695-.702 1.228l.526 1.93c.121.445.524.737.964.737.088 0 .176-.012.264-.036.533-.146.848-.695.702-1.228L37.098 51.051zM21.824 48.561c-.479-.274-1.09-.107-1.364.372l-.993 1.736c-.274.479-.107 1.09.372 1.365.156.089.327.132.495.132.347 0 .685-.181.869-.503l.993-1.736C22.471 49.446 22.304 48.835 21.824 48.561zM41.692 48.843c-.279-.478-.889-.64-1.368-.36-.477.278-.638.89-.36 1.367l1.007 1.728c.187.319.521.497.865.497.171 0 .344-.044.503-.136.477-.278.638-.89.36-1.367L41.692 48.843zM26.294 50.39c-.525-.137-1.081.177-1.222.712l-.51 1.934c-.141.534.178 1.081.712 1.222.085.022.171.034.256.034.442 0 .848-.297.966-.746l.51-1.934C27.146 51.078 26.828 50.531 26.294 50.39zM38.264 10.292c.712.262 1.42.568 2.104.91.143.072.295.105.445.105.367 0 .721-.203.896-.553.247-.494.046-1.095-.448-1.341-.748-.374-1.523-.709-2.305-.998-.517-.19-1.093.074-1.284.593C37.48 9.525 37.745 10.1 38.264 10.292zM20.019 11.929c.169 0 .341-.043.498-.134 4.125-2.377 9.001-3.279 13.729-2.543.555.082 1.058-.289 1.143-.834s-.289-1.057-.834-1.142c-5.179-.807-10.518.184-15.035 2.788-.479.276-.644.887-.367 1.366C19.336 11.75 19.673 11.929 20.019 11.929zM52.03 30H50v-5.997c0-1.105-.895-2-2-2h-4c-1.105 0-2 .895-2 2V30h-1.984v-5.997c0-1.105-.895-2-2-2h-4c-1.075 0-1.952.848-1.998 1.912l-.03-.024c-.192-.15-3.446-2.694-3.446-2.694-.362-.282-.796-.423-1.23-.423-.437 0-.873.143-1.236.428l-4.562 3.587c-1.372-1.574-3.482-2.787-6.125-2.787H10c-1.105 0-2 .895-2 2v12.003c0 1.105.895 2 2 2h5.387c2.406 0 4.623-1.043 6.129-2.783l4.558 3.583c.363.285.8.428 1.236.428.444 0 .887-.147 1.253-.441l3.452-2.774c.007 1.098.9 1.987 2 1.987H52.03c1.105 0 2-.895 2-2V32C54.03 30.895 53.134 30 52.03 30zM42.562 36.006h-8.547v-4.159l-6.705 5.387-6.299-4.952c-.908 2.182-3.091 3.724-5.625 3.724H10V24.003h5.387c2.827 0 4.861 1.807 5.625 3.724l6.299-4.952 2.337 1.822-5.784 4.516 1.109.872 5.784-4.516 2.337 1.822-5.784 4.556 1.109.872 5.595-4.556v-4.159h4V32h4.547V36.006zM52.03 36.006H44V24.003h4V32h4.03V36.006z"/><path fill="#8d6c9f" d="M14.952,27.45h-0.911v5.11h0.911c1.415,0,2.615-0.798,2.615-2.575 C17.566,28.354,16.474,27.45,14.952,27.45z"/></svg>