<svg xmlns="http://www.w3.org/2000/svg" viewBox="0 0 64 64" width="200px" height="200px"><linearGradient id="mBO7devZrQQKax4a_AWLra" x1="32" x2="32" y1="11.375" y2="52.252" gradientUnits="userSpaceOnUse" spreadMethod="reflect"><stop offset="0" stop-color="#1a6dff"/><stop offset="1" stop-color="#c822ff"/></linearGradient><path fill="url(#mBO7devZrQQKax4a_AWLra)" d="M58,16H6c-1.654,0-3,1.346-3,3v30c0,1.654,1.346,3,3,3h52c1.654,0,3-1.346,3-3V19 C61,17.346,59.654,16,58,16z M59,49c0,0.552-0.448,1-1,1H6c-0.552,0-1-0.448-1-1V19c0-0.552,0.448-1,1-1h52c0.552,0,1,0.448,1,1V49z"/><linearGradient id="mBO7devZrQQKax4a_AWLrb" x1="32" x2="32" y1="11.375" y2="52.252" gradientUnits="userSpaceOnUse" spreadMethod="reflect"><stop offset="0" stop-color="#1a6dff"/><stop offset="1" stop-color="#c822ff"/></linearGradient><path fill="url(#mBO7devZrQQKax4a_AWLrb)" d="M5 12H59V14H5z"/><linearGradient id="mBO7devZrQQKax4a_AWLrc" x1="15.094" x2="15.094" y1="26.667" y2="41.016" gradientUnits="userSpaceOnUse" spreadMethod="reflect"><stop offset="0" stop-color="#6dc7ff"/><stop offset="1" stop-color="#e6abff"/></linearGradient><path fill="url(#mBO7devZrQQKax4a_AWLrc)" d="M9.762,40l4.211-12h2.305l4.148,12h-2.172l-1.133-3h-4.008l-1.141,3H9.762z M13.645,35h2.938 c-0.938-3-1.419-4.557-1.445-4.656L13.645,35z"/><linearGradient id="mBO7devZrQQKax4a_AWLrd" x1="27.5" x2="27.5" y1="26.667" y2="41.016" gradientUnits="userSpaceOnUse" spreadMethod="reflect"><stop offset="0" stop-color="#6dc7ff"/><stop offset="1" stop-color="#e6abff"/></linearGradient><path fill="url(#mBO7devZrQQKax4a_AWLrd)" d="M21,40V28h3.066l3.461,8.266L31.012,28H34v12h-2v-9l-3.629,8h-1.813L23,31v9H21z"/><linearGradient id="mBO7devZrQQKax4a_AWLre" x1="39.5" x2="39.5" y1="26.667" y2="41.016" gradientUnits="userSpaceOnUse" spreadMethod="reflect"><stop offset="0" stop-color="#6dc7ff"/><stop offset="1" stop-color="#e6abff"/></linearGradient><path fill="url(#mBO7devZrQQKax4a_AWLre)" d="M36,40V28h7v2h-5v3h5v2h-5v3h4.973l-0.07,2H36z"/><linearGradient id="mBO7devZrQQKax4a_AWLrf" x1="48.934" x2="48.934" y1="26.667" y2="41.016" gradientUnits="userSpaceOnUse" spreadMethod="reflect"><stop offset="0" stop-color="#6dc7ff"/><stop offset="1" stop-color="#e6abff"/></linearGradient><path fill="url(#mBO7devZrQQKax4a_AWLrf)" d="M43.629,40l4.008-6.137L43.926,28h2.383l2.695,4.266L51.777,28h2.258l-3.789,5.895L54.238,40 h-2.445l-2.891-4.453L45.949,40H43.629z"/></svg>